<svg version="1.1" id="Layer_1" xmlns="http://www.w3.org/2000/svg" xmlns:xlink="http://www.w3.org/1999/xlink" x="0px" y="0px"
	 width="100%" viewBox="0 0 258 198" enable-background="new 0 0 258 198" xml:space="preserve">
<path fill="#FFFFFF" opacity="0" stroke="none" 
	d="
M182.000000,199.000000 
	C121.333336,199.000000 61.166676,199.000000 1.000008,199.000000 
	C1.000005,133.000000 1.000005,67.000015 1.000003,1.000017 
	C86.999992,1.000011 172.999985,1.000011 259.000000,1.000006 
	C259.000000,66.999985 259.000000,132.999969 259.000000,198.999969 
	C233.500000,199.000000 208.000000,199.000000 182.000000,199.000000 
M49.342838,114.503914 
	C49.342838,131.922638 49.342838,149.341370 49.342838,167.145065 
	C42.784199,167.145065 36.800575,166.872147 30.867077,167.297836 
	C28.876490,167.440643 25.517363,169.200073 25.375235,170.503220 
	C24.962732,174.285431 28.357378,174.011459 31.045973,174.011429 
	C95.164528,174.010574 159.283081,174.016144 223.401627,173.990677 
	C225.929504,173.989670 229.254089,174.795807 229.142471,170.535950 
	C229.034088,166.398834 225.740997,167.203766 223.214249,167.169617 
	C217.297760,167.089676 211.379440,167.144073 205.172180,167.144073 
	C205.172180,153.785049 204.950424,141.146591 205.289841,128.523209 
	C205.412231,123.970955 203.781616,121.578201 199.852081,119.691475 
	C190.868591,115.378151 182.125229,110.563591 173.129059,106.278587 
	C170.127884,104.849083 169.053894,103.215118 169.096649,99.869934 
	C169.290222,84.717110 169.122971,69.560013 169.230911,54.405487 
	C169.252106,51.427074 168.359085,49.531120 165.715881,47.929352 
	C154.058121,40.864853 142.612640,33.446026 130.867630,26.533854 
	C129.065598,25.473328 125.563766,25.480247 123.758347,26.541719 
	C112.009460,33.449318 100.412636,40.633640 89.029701,48.127876 
	C87.121819,49.383980 85.614304,52.527782 85.447716,54.906227 
	C84.971802,61.701038 85.506050,68.563171 85.133286,75.370918 
	C85.033623,77.191101 83.525719,79.642418 81.945007,80.546967 
	C76.043373,83.924141 70.102501,87.577950 63.698898,89.658478 
	C51.602325,93.588654 46.816948,101.152931 49.342838,114.503914 
M99.500000,188.017365 
	C126.820984,188.017303 154.142502,188.085266 181.461807,187.871613 
	C183.383484,187.856598 186.718872,185.969589 186.918823,184.593094 
	C187.409607,181.214478 184.231140,181.137405 181.653946,181.137253 
	C145.503616,181.134933 109.353012,181.084290 73.203705,181.276489 
	C71.253380,181.286850 67.713799,183.281815 67.671089,184.453461 
	C67.545731,187.891907 70.692421,188.052933 73.511406,188.035599 
	C81.840652,187.984344 90.170433,188.017334 99.500000,188.017365 
z"/>
<path fill="current" opacity="1.000000" stroke="none" 
	d="
M49.342896,114.005356 
	C46.816948,101.152931 51.602325,93.588654 63.698898,89.658478 
	C70.102501,87.577950 76.043373,83.924141 81.945007,80.546967 
	C83.525719,79.642418 85.033623,77.191101 85.133286,75.370918 
	C85.506050,68.563171 84.971802,61.701038 85.447716,54.906227 
	C85.614304,52.527782 87.121819,49.383980 89.029701,48.127876 
	C100.412636,40.633640 112.009460,33.449318 123.758347,26.541719 
	C125.563766,25.480247 129.065598,25.473328 130.867630,26.533854 
	C142.612640,33.446026 154.058121,40.864853 165.715881,47.929352 
	C168.359085,49.531120 169.252106,51.427074 169.230911,54.405487 
	C169.122971,69.560013 169.290222,84.717110 169.096649,99.869934 
	C169.053894,103.215118 170.127884,104.849083 173.129059,106.278587 
	C182.125229,110.563591 190.868591,115.378151 199.852081,119.691475 
	C203.781616,121.578201 205.412231,123.970955 205.289841,128.523209 
	C204.950424,141.146591 205.172180,153.785049 205.172180,167.144073 
	C211.379440,167.144073 217.297760,167.089676 223.214249,167.169617 
	C225.740997,167.203766 229.034088,166.398834 229.142471,170.535950 
	C229.254089,174.795807 225.929504,173.989670 223.401627,173.990677 
	C159.283081,174.016144 95.164528,174.010574 31.045973,174.011429 
	C28.357378,174.011459 24.962732,174.285431 25.375235,170.503220 
	C25.517363,169.200073 28.876490,167.440643 30.867077,167.297836 
	C36.800575,166.872147 42.784199,167.145065 49.342838,167.145065 
	C49.342838,149.341370 49.342838,131.922638 49.342896,114.005356 
M85.296570,160.462738 
	C85.296570,136.077667 85.296570,111.692612 85.296570,86.562912 
	C75.044197,91.715584 65.588089,96.468063 56.263229,101.154579 
	C56.263229,123.199852 56.263229,144.958801 56.263229,166.791443 
	C66.038445,166.791443 75.571785,166.791443 85.296402,166.791443 
	C85.296402,164.766739 85.296402,163.109283 85.296570,160.462738 
M198.656082,138.536835 
	C198.655991,135.710327 198.797638,132.873566 198.594315,130.061768 
	C198.496841,128.713730 198.135223,126.686081 197.231857,126.203018 
	C188.095856,121.317596 178.822922,116.688232 169.458710,111.920967 
	C169.458710,130.678864 169.458710,148.740891 169.458710,166.779816 
	C179.291901,166.779816 188.815964,166.779816 198.655960,166.779816 
	C198.655960,157.436600 198.655960,148.480545 198.656082,138.536835 
M130.728561,60.547688 
	C131.153412,62.887711 130.758682,66.447159 132.134689,67.371994 
	C141.851929,73.903030 151.932846,79.892929 162.670303,86.533310 
	C162.670303,83.482422 162.836288,81.363129 162.623062,79.282707 
	C162.414825,77.251122 162.505356,74.218933 161.285385,73.414444 
	C151.504181,66.964462 141.443375,60.938511 130.728470,54.326385 
	C130.728470,56.745937 130.728470,58.196991 130.728561,60.547688 
M144.760284,42.752773 
	C140.313431,40.008976 135.866562,37.265179 130.728592,34.094952 
	C130.728592,36.692326 130.929291,38.211502 130.692352,39.659046 
	C129.858582,44.752983 131.875916,47.825321 136.476852,50.250900 
	C142.935822,53.656017 148.975891,57.854012 155.208435,61.691280 
	C157.518707,63.113682 159.866608,64.474998 161.839859,65.651100 
	C165.228134,56.465656 161.109467,51.429523 153.492813,48.018997 
	C150.633911,46.738861 148.091782,44.751236 144.760284,42.752773 
M130.730576,139.870209 
	C129.488083,146.180954 132.072083,150.234100 137.970688,152.524902 
	C139.645554,153.175354 141.112793,154.364502 142.667847,155.318665 
	C149.087631,159.257889 155.504547,163.201767 162.033142,167.211868 
	C164.204773,159.108932 162.589874,153.472748 154.827484,150.318970 
	C151.645218,149.026047 148.866821,146.742523 145.897400,144.921509 
	C141.030594,141.936905 136.157822,138.962021 130.915421,135.755402 
	C130.824341,137.357315 130.777512,138.180954 130.730576,139.870209 
M159.204819,145.373016 
	C160.164764,145.875748 161.124695,146.378464 162.162582,146.922012 
	C164.043991,138.958115 162.712463,132.983871 154.548401,129.925339 
	C151.953461,128.953186 149.723160,127.014885 147.313980,125.538307 
	C141.999634,122.281166 136.677643,119.036514 130.728058,115.401405 
	C130.728058,117.811996 130.938736,119.328613 130.690186,120.765808 
	C129.798965,125.919044 132.087021,128.846039 136.537079,131.328430 
	C144.076523,135.534164 151.243393,140.407776 159.204819,145.373016 
M146.014664,104.491447 
	C141.139069,101.523102 136.263474,98.554749 130.728607,95.185013 
	C130.728607,97.544106 130.924026,98.897369 130.694504,100.174255 
	C129.740097,105.483879 131.921677,108.592575 136.651291,111.177948 
	C144.363388,115.393646 151.635422,120.412598 159.115845,125.056015 
	C160.124374,125.682045 161.264709,126.095726 162.001572,126.445274 
	C165.167389,117.406059 161.031738,112.366653 153.442337,109.008087 
	C151.033707,107.942184 148.888214,106.281708 146.014664,104.491447 
M130.772812,76.301575 
	C129.197311,84.164543 132.152695,89.114861 139.502518,92.714409 
	C147.288620,96.527657 154.419540,101.678749 162.016144,106.356071 
	C163.984497,98.598999 162.948792,92.869835 155.210266,89.779503 
	C152.481171,88.689659 150.155533,86.619011 147.581253,85.105797 
	C142.070953,81.866730 136.518661,78.699112 130.772812,76.301575 
M130.998901,157.029877 
	C130.998901,160.280029 130.998901,163.530182 130.998901,166.697479 
	C136.735977,166.697479 142.153015,166.697479 148.693253,166.697479 
	C142.367081,162.948410 137.095535,159.824341 130.998901,157.029877 
M109.961380,144.581909 
	C111.499832,143.524429 113.038284,142.466949 114.576736,141.409470 
	C113.027740,140.540878 111.560860,139.203812 109.910339,138.914536 
	C107.491142,138.490555 104.890236,138.524734 102.466324,138.942032 
	C101.188408,139.162033 100.121597,140.608292 98.959473,141.500885 
	C100.177551,142.525696 101.258865,144.100174 102.646057,144.445343 
	C104.682648,144.952087 106.937897,144.580093 109.961380,144.581909 
M107.413551,117.583107 
	C108.405556,117.581223 109.547211,117.893471 110.356430,117.507942 
	C111.767693,116.835602 112.974213,115.733513 114.266556,114.811554 
	C112.897354,113.809868 111.631439,112.190971 110.136475,111.940796 
	C107.405304,111.483749 104.504478,111.591743 101.745712,111.976006 
	C100.687645,112.123375 99.083733,113.665726 99.075668,114.584251 
	C99.067123,115.556404 100.496658,117.032944 101.596252,117.402924 
	C103.086876,117.904457 104.861198,117.562820 107.413551,117.583107 
M113.171768,152.793411 
	C109.420204,152.605713 105.645699,152.131699 101.932983,152.429092 
	C100.990128,152.504608 100.243797,155.033615 99.407173,156.435287 
	C102.848480,156.963730 106.279236,157.759338 109.736031,157.895966 
	C111.226616,157.954895 112.868355,156.791565 114.220482,155.862091 
	C114.545151,155.638885 113.989174,154.134644 113.171768,152.793411 
M113.987213,99.797913 
	C109.569519,99.365189 105.156319,98.815643 100.728531,98.645027 
	C100.164085,98.623276 98.943024,100.667465 99.083344,101.594551 
	C99.220261,102.499146 100.660118,103.796249 101.618568,103.879639 
	C104.899597,104.165070 108.253807,104.255005 111.506584,103.841393 
	C112.533653,103.710785 113.329979,101.765533 113.987213,99.797913 
M110.143135,84.983116 
	C107.484932,84.985489 104.778824,84.694878 102.189484,85.118347 
	C100.962379,85.319031 99.958427,86.884232 98.853371,87.831230 
	C99.962723,88.832535 100.965775,90.502136 102.203087,90.698952 
	C104.957916,91.137154 107.873047,91.126854 110.634979,90.712944 
	C111.917458,90.520760 112.994888,88.960266 114.165268,88.020058 
	C113.124374,87.010719 112.083488,86.001389 110.143135,84.983116 
M111.122864,131.007584 
	C112.182808,129.880035 113.242760,128.752487 114.302711,127.624954 
	C113.211700,126.807068 112.186028,125.417336 111.016838,125.283745 
	C108.082581,124.948486 105.040871,124.894569 102.131020,125.326225 
	C100.950645,125.501320 100.000801,127.230400 98.946060,128.252365 
	C100.057060,129.170547 101.072769,130.687531 102.298836,130.882660 
	C104.876709,131.292923 107.565010,131.009354 111.122864,131.007584 
M103.778061,63.856113 
	C106.104454,63.846901 108.506073,64.181511 110.728088,63.695286 
	C111.994499,63.418167 112.967743,61.801311 114.072998,60.787724 
	C112.946152,59.856548 111.923286,58.342102 110.670273,58.118740 
	C108.253708,57.687958 105.648010,57.660198 103.235199,58.097279 
	C101.620598,58.389755 100.203445,59.772221 98.697945,60.666943 
	C100.093819,61.729126 101.489700,62.791313 103.778061,63.856113 
M104.600182,71.547546 
	C103.934471,71.552200 103.118973,71.311317 102.631744,71.608543 
	C101.286346,72.429276 100.078133,73.474884 98.815674,74.431572 
	C100.153076,75.336472 101.401161,76.790825 102.847443,77.025932 
	C105.440994,77.447533 108.205238,77.438713 110.794075,76.998169 
	C112.017288,76.790001 112.999863,75.167725 114.091461,74.186157 
	C113.072701,73.322243 112.170547,71.996910 111.007729,71.703049 
	C109.283333,71.267288 107.374214,71.562469 104.600182,71.547546 
z"/>
<path fill="current" opacity="1.000000" stroke="none" 
	d="
M99.000000,188.017365 
	C90.170433,188.017334 81.840652,187.984344 73.511406,188.035599 
	C70.692421,188.052933 67.545731,187.891907 67.671089,184.453461 
	C67.713799,183.281815 71.253380,181.286850 73.203705,181.276489 
	C109.353012,181.084290 145.503616,181.134933 181.653946,181.137253 
	C184.231140,181.137405 187.409607,181.214478 186.918823,184.593094 
	C186.718872,185.969589 183.383484,187.856598 181.461807,187.871613 
	C154.142502,188.085266 126.820984,188.017303 99.000000,188.017365 
z"/>
<path fill="#FAFAFA" opacity="0" stroke="none" 
	d="
M85.296486,160.957275 
	C85.296402,163.109283 85.296402,164.766739 85.296402,166.791443 
	C75.571785,166.791443 66.038445,166.791443 56.263229,166.791443 
	C56.263229,144.958801 56.263229,123.199852 56.263229,101.154579 
	C65.588089,96.468063 75.044197,91.715584 85.296570,86.562912 
	C85.296570,111.692612 85.296570,136.077667 85.296486,160.957275 
M73.898865,129.500000 
	C73.899216,139.153763 73.800140,148.809692 74.009911,158.458893 
	C74.040459,159.863998 75.546585,161.237015 76.369926,162.624863 
	C77.219238,161.227814 78.796013,159.837021 78.808044,158.432785 
	C78.972038,139.293106 78.971619,120.151115 78.809982,101.011406 
	C78.798477,99.649124 77.211830,98.300156 76.357590,96.944992 
	C75.537636,98.308899 74.039505,99.657104 74.007500,101.039246 
	C73.795662,110.188766 73.898483,119.345566 73.898865,129.500000 
M67.794456,137.500000 
	C67.792603,128.839920 67.908081,120.176491 67.660522,111.523445 
	C67.624016,110.247246 65.868095,109.020226 64.907692,107.770454 
	C64.175629,109.043877 62.818596,110.311424 62.806568,111.591606 
	C62.659531,127.244995 62.647194,142.900925 62.817612,158.553802 
	C62.832634,159.933289 64.376762,161.296097 65.210678,162.666656 
	C66.071465,161.272690 67.618973,159.906082 67.675781,158.480087 
	C67.940735,151.829010 67.793953,145.161560 67.794456,137.500000 
z"/>
<path fill="#F7F7F7" opacity="0" stroke="none" 
	d="
M198.656021,139.030655 
	C198.655960,148.480545 198.655960,157.436600 198.655960,166.779816 
	C188.815964,166.779816 179.291901,166.779816 169.458710,166.779816 
	C169.458710,148.740891 169.458710,130.678864 169.458710,111.920967 
	C178.822922,116.688232 188.095856,121.317596 197.231857,126.203018 
	C198.135223,126.686081 198.496841,128.713730 198.594315,130.061768 
	C198.797638,132.873566 198.655991,135.710327 198.656021,139.030655 
M175.918213,154.416290 
	C175.918243,155.412231 175.663544,156.496536 175.971863,157.385544 
	C176.593567,159.178131 177.521515,160.864517 178.323135,162.594711 
	C179.189102,160.893112 180.766205,159.207382 180.804596,157.487335 
	C181.037933,147.035019 181.027405,136.572556 180.798676,126.120049 
	C180.766617,124.654846 179.091278,123.225609 178.176605,121.779732 
	C177.424088,123.203575 176.051392,124.613899 176.020004,126.053474 
	C175.820923,135.178711 175.918472,144.310425 175.918213,154.416290 
M192.015854,144.530655 
	C192.015182,141.704605 192.300629,138.836578 191.894547,136.070038 
	C191.687927,134.662415 190.237381,133.437393 189.349152,132.129822 
	C188.574692,133.397491 187.165588,134.647659 187.130051,135.935715 
	C186.919266,143.576828 186.915283,151.229965 187.137558,158.870468 
	C187.174347,160.135300 188.667847,161.357788 189.488159,162.599854 
	C190.329880,161.394699 191.814148,160.232254 191.897614,158.976685 
	C192.194702,154.507965 192.015015,150.007523 192.015854,144.530655 
z"/>
<path fill="#F8F8F8" opacity="0" stroke="none" 
	d="
M130.728516,60.097866 
	C130.728470,58.196991 130.728470,56.745937 130.728470,54.326385 
	C141.443375,60.938511 151.504181,66.964462 161.285385,73.414444 
	C162.505356,74.218933 162.414825,77.251122 162.623062,79.282707 
	C162.836288,81.363129 162.670303,83.482422 162.670303,86.533310 
	C151.932846,79.892929 141.851929,73.903030 132.134689,67.371994 
	C130.758682,66.447159 131.153412,62.887711 130.728516,60.097866 
z"/>
<path fill="#F8F8F8" opacity="0" stroke="none" 
	d="
M145.082764,42.919472 
	C148.091782,44.751236 150.633911,46.738861 153.492813,48.018997 
	C161.109467,51.429523 165.228134,56.465656 161.839859,65.651100 
	C159.866608,64.474998 157.518707,63.113682 155.208435,61.691280 
	C148.975891,57.854012 142.935822,53.656017 136.476852,50.250900 
	C131.875916,47.825321 129.858582,44.752983 130.692352,39.659046 
	C130.929291,38.211502 130.728592,36.692326 130.728592,34.094952 
	C135.866562,37.265179 140.313431,40.008976 145.082764,42.919472 
z"/>
<path fill="#F8F8F8" opacity="0" stroke="none" 
	d="
M130.730621,139.437408 
	C130.777512,138.180954 130.824341,137.357315 130.915421,135.755402 
	C136.157822,138.962021 141.030594,141.936905 145.897400,144.921509 
	C148.866821,146.742523 151.645218,149.026047 154.827484,150.318970 
	C162.589874,153.472748 164.204773,159.108932 162.033142,167.211868 
	C155.504547,163.201767 149.087631,159.257889 142.667847,155.318665 
	C141.112793,154.364502 139.645554,153.175354 137.970688,152.524902 
	C132.072083,150.234100 129.488083,146.180954 130.730621,139.437408 
z"/>
<path fill="#F8F8F8" opacity="0" stroke="none" 
	d="
M158.885864,145.186829 
	C151.243393,140.407776 144.076523,135.534164 136.537079,131.328430 
	C132.087021,128.846039 129.798965,125.919044 130.690186,120.765808 
	C130.938736,119.328613 130.728058,117.811996 130.728058,115.401405 
	C136.677643,119.036514 141.999634,122.281166 147.313980,125.538307 
	C149.723160,127.014885 151.953461,128.953186 154.548401,129.925339 
	C162.712463,132.983871 164.043991,138.958115 162.162582,146.922012 
	C161.124695,146.378464 160.164764,145.875748 158.885864,145.186829 
z"/>
<path fill="#F8F8F8" opacity="0" stroke="none" 
	d="
M146.318481,104.692383 
	C148.888214,106.281708 151.033707,107.942184 153.442337,109.008087 
	C161.031738,112.366653 165.167389,117.406059 162.001572,126.445274 
	C161.264709,126.095726 160.124374,125.682045 159.115845,125.056015 
	C151.635422,120.412598 144.363388,115.393646 136.651291,111.177948 
	C131.921677,108.592575 129.740097,105.483879 130.694504,100.174255 
	C130.924026,98.897369 130.728607,97.544106 130.728607,95.185013 
	C136.263474,98.554749 141.139069,101.523102 146.318481,104.692383 
z"/>
<path fill="#F9F9F9" opacity="0" stroke="none" 
	d="
M130.878189,75.901901 
	C136.518661,78.699112 142.070953,81.866730 147.581253,85.105797 
	C150.155533,86.619011 152.481171,88.689659 155.210266,89.779503 
	C162.948792,92.869835 163.984497,98.598999 162.016144,106.356071 
	C154.419540,101.678749 147.288620,96.527657 139.502518,92.714409 
	C132.152695,89.114861 129.197311,84.164543 130.878189,75.901901 
z"/>
<path fill="#FAFAFA" opacity="0" stroke="none" 
	d="
M131.411438,156.865082 
	C137.095535,159.824341 142.367081,162.948410 148.693253,166.697479 
	C142.153015,166.697479 136.735977,166.697479 130.998901,166.697479 
	C130.998901,163.530182 130.998901,160.280029 131.411438,156.865082 
z"/>
<path fill="#EFEFEF" opacity="0" stroke="none" 
	d="
M109.530685,144.582214 
	C106.937897,144.580093 104.682648,144.952087 102.646057,144.445343 
	C101.258865,144.100174 100.177551,142.525696 98.959473,141.500885 
	C100.121597,140.608292 101.188408,139.162033 102.466324,138.942032 
	C104.890236,138.524734 107.491142,138.490555 109.910339,138.914536 
	C111.560860,139.203812 113.027740,140.540878 114.576736,141.409470 
	C113.038284,142.466949 111.499832,143.524429 109.530685,144.582214 
z"/>
<path fill="#EFEFEF" opacity="0" stroke="none" 
	d="
M106.963684,117.582993 
	C104.861198,117.562820 103.086876,117.904457 101.596252,117.402924 
	C100.496658,117.032944 99.067123,115.556404 99.075668,114.584251 
	C99.083733,113.665726 100.687645,112.123375 101.745712,111.976006 
	C104.504478,111.591743 107.405304,111.483749 110.136475,111.940796 
	C111.631439,112.190971 112.897354,113.809868 114.266556,114.811554 
	C112.974213,115.733513 111.767693,116.835602 110.356430,117.507942 
	C109.547211,117.893471 108.405556,117.581223 106.963684,117.582993 
z"/>
<path fill="#F2F2F2" opacity="0" stroke="none" 
	d="
M113.504982,153.006470 
	C113.989174,154.134644 114.545151,155.638885 114.220482,155.862091 
	C112.868355,156.791565 111.226616,157.954895 109.736031,157.895966 
	C106.279236,157.759338 102.848480,156.963730 99.407166,156.435287 
	C100.243797,155.033615 100.990128,152.504608 101.932983,152.429092 
	C105.645699,152.131699 109.420204,152.605713 113.504982,153.006470 
z"/>
<path fill="#F6F6F6" opacity="0" stroke="none" 
	d="
M114.109558,100.224342 
	C113.329979,101.765533 112.533653,103.710785 111.506584,103.841393 
	C108.253807,104.255005 104.899597,104.165070 101.618568,103.879639 
	C100.660118,103.796249 99.220261,102.499146 99.083344,101.594551 
	C98.943024,100.667465 100.164085,98.623276 100.728531,98.645027 
	C105.156319,98.815643 109.569519,99.365189 114.109558,100.224342 
z"/>
<path fill="#F4F4F4" opacity="0" stroke="none" 
	d="
M110.592865,84.987579 
	C112.083488,86.001389 113.124374,87.010719 114.165268,88.020058 
	C112.994888,88.960266 111.917458,90.520760 110.634979,90.712944 
	C107.873047,91.126854 104.957916,91.137154 102.203087,90.698952 
	C100.965775,90.502136 99.962723,88.832535 98.853371,87.831230 
	C99.958427,86.884232 100.962379,85.319031 102.189484,85.118347 
	C104.778824,84.694878 107.484932,84.985489 110.592865,84.987579 
z"/>
<path fill="#F6F6F6" opacity="0" stroke="none" 
	d="
M110.665421,131.009064 
	C107.565010,131.009354 104.876709,131.292923 102.298836,130.882660 
	C101.072769,130.687531 100.057060,129.170547 98.946060,128.252365 
	C100.000801,127.230400 100.950645,125.501320 102.131020,125.326225 
	C105.040871,124.894569 108.082581,124.948486 111.016838,125.283745 
	C112.186028,125.417336 113.211700,126.807068 114.302711,127.624954 
	C113.242760,128.752487 112.182808,129.880035 110.665421,131.009064 
z"/>
<path fill="#F4F4F4" opacity="0" stroke="none" 
	d="
M103.331818,63.854805 
	C101.489700,62.791313 100.093819,61.729126 98.697945,60.666943 
	C100.203445,59.772221 101.620598,58.389755 103.235199,58.097279 
	C105.648010,57.660198 108.253708,57.687958 110.670273,58.118740 
	C111.923286,58.342102 112.946152,59.856548 114.072998,60.787724 
	C112.967743,61.801311 111.994499,63.418167 110.728088,63.695286 
	C108.506073,64.181511 106.104454,63.846901 103.331818,63.854805 
z"/>
<path fill="#FDFDFD" opacity="0" stroke="none" 
	d="
M105.071960,71.547020 
	C107.374214,71.562469 109.283333,71.267288 111.007729,71.703049 
	C112.170547,71.996910 113.072701,73.322243 114.091461,74.186157 
	C112.999863,75.167725 112.017288,76.790001 110.794075,76.998169 
	C108.205238,77.438713 105.440994,77.447533 102.847443,77.025932 
	C101.401161,76.790825 100.153076,75.336472 98.815674,74.431572 
	C100.078133,73.474884 101.286346,72.429276 102.631744,71.608543 
	C103.118973,71.311317 103.934471,71.552200 105.071960,71.547020 
z"/>
<path fill="current" opacity="1.000000" stroke="none" 
	d="
M73.898865,129.000000 
	C73.898483,119.345566 73.795662,110.188766 74.007500,101.039246 
	C74.039505,99.657104 75.537636,98.308899 76.357590,96.944992 
	C77.211830,98.300156 78.798477,99.649124 78.809982,101.011406 
	C78.971619,120.151115 78.972038,139.293106 78.808044,158.432785 
	C78.796013,159.837021 77.219238,161.227814 76.369919,162.624863 
	C75.546585,161.237015 74.040459,159.863998 74.009911,158.458893 
	C73.800140,148.809692 73.899216,139.153763 73.898865,129.000000 
z"/>
<path fill="current" opacity="1.000000" stroke="none" 
	d="
M67.794434,137.999969 
	C67.793953,145.161560 67.940735,151.829010 67.675781,158.480087 
	C67.618973,159.906082 66.071465,161.272690 65.210678,162.666656 
	C64.376762,161.296097 62.832634,159.933289 62.817612,158.553802 
	C62.647194,142.900925 62.659531,127.244995 62.806568,111.591606 
	C62.818596,110.311424 64.175629,109.043877 64.907692,107.770454 
	C65.868095,109.020226 67.624016,110.247246 67.660522,111.523445 
	C67.908081,120.176491 67.792603,128.839920 67.794434,137.999969 
z"/>
<path fill="current" opacity="1.000000" stroke="none" 
	d="
M175.918213,153.928146 
	C175.918472,144.310425 175.820923,135.178711 176.020004,126.053474 
	C176.051392,124.613899 177.424088,123.203575 178.176605,121.779724 
	C179.091278,123.225609 180.766617,124.654846 180.798676,126.120049 
	C181.027405,136.572556 181.037933,147.035019 180.804596,157.487335 
	C180.766205,159.207382 179.189102,160.893112 178.323120,162.594711 
	C177.521515,160.864517 176.593567,159.178131 175.971863,157.385544 
	C175.663544,156.496536 175.918243,155.412231 175.918213,153.928146 
z"/>
<path fill="#current" opacity="1.000000" stroke="none" 
	d="
M192.015854,145.024872 
	C192.015015,150.007523 192.194702,154.507965 191.897614,158.976685 
	C191.814148,160.232254 190.329880,161.394699 189.488159,162.599854 
	C188.667847,161.357788 187.174347,160.135300 187.137558,158.870468 
	C186.915283,151.229965 186.919266,143.576828 187.130051,135.935715 
	C187.165588,134.647659 188.574692,133.397491 189.349152,132.129822 
	C190.237381,133.437393 191.687927,134.662415 191.894547,136.070038 
	C192.300629,138.836578 192.015182,141.704605 192.015854,145.024872 
z"/>
</svg>